<svg id="Coloured" xmlns="http://www.w3.org/2000/svg" viewBox="0 0 841.89 595.28"><defs><style>.cls-1{fill:#1a1a1a;}.cls-2{fill:#ef3059;}</style></defs><title>AAWB SPOT</title><path class="cls-1" d="M362.64,210.71v-.77a21.86,21.86,0,0,1-6.32,3.56A21.74,21.74,0,1,1,370.75,193v17.69a4,4,0,0,1-4,4,3.93,3.93,0,0,1-2.89-1.19A3.89,3.89,0,0,1,362.64,210.71ZM349,179.41a13.09,13.09,0,0,0-5.35,1.09,13.54,13.54,0,0,0-7.2,7.25,13.66,13.66,0,0,0,0,10.55,13.88,13.88,0,0,0,2.89,4.32,13.65,13.65,0,0,0,4.31,2.93,13.58,13.58,0,0,0,10.66,0,13.58,13.58,0,0,0,4.33-3,13.93,13.93,0,0,0,2.91-4.32,13.56,13.56,0,0,0,0-10.51,14,14,0,0,0-2.91-4.33,13.72,13.72,0,0,0-4.33-2.94A13,13,0,0,0,349,179.41Z"/><path class="cls-1" d="M506.1,176.11a20.67,20.67,0,0,1,13.62-4.81,22.06,22.06,0,0,1,20.13,13.37,21.72,21.72,0,0,1,1.59,8.36,20.77,20.77,0,0,1-6.36,15.36A21.72,21.72,0,0,1,498,193V156.72a3.9,3.9,0,0,1,4-4,4,4,0,0,1,2.89,1.14,3.84,3.84,0,0,1,1.18,2.89Zm13.62,30.53a13,13,0,0,0,5.31-1.09,13.72,13.72,0,0,0,4.33-2.94,14.34,14.34,0,0,0,2.91-4.33,13.56,13.56,0,0,0,0-10.51,14.46,14.46,0,0,0-2.91-4.33A13.72,13.72,0,0,0,525,180.5a13,13,0,0,0-5.31-1.09,13.14,13.14,0,0,0-5.36,1.09,13.66,13.66,0,0,0-7.19,7.25,13.54,13.54,0,0,0,0,10.55,13.57,13.57,0,0,0,7.19,7.25A13.14,13.14,0,0,0,519.72,206.64Z"/><path class="cls-2" d="M413,183.45a13.81,13.81,0,0,0-4.32-2.95,13.6,13.6,0,0,0-10.67,0,13.65,13.65,0,0,0-4.31,2.93,14,14,0,0,0-2.89,4.32,13.66,13.66,0,0,0,0,10.55,13.61,13.61,0,0,0,7.2,7.26,13.72,13.72,0,0,0,10.67,0,13.83,13.83,0,0,0,7.23-7.28,13.44,13.44,0,0,0,0-10.51A13.93,13.93,0,0,0,413,183.45Z"/><path class="cls-2" d="M434.33,132.26A57.4,57.4,0,0,0,377,189.62V247h57.36a57.36,57.36,0,1,0,0-114.72Zm-9.28,78.45a4,4,0,0,1-4,4,4,4,0,0,1-2.89-1.18,3.89,3.89,0,0,1-1.18-2.86v-.77a22.32,22.32,0,0,1-6.33,3.57A21.74,21.74,0,1,1,425.05,193Zm47.55,1.44a3.71,3.71,0,0,1-1.28,1.86,4.37,4.37,0,0,1-4.93,0,3.47,3.47,0,0,1-1.35-1.82l-8-24-8,24a3.54,3.54,0,0,1-1.4,1.86,4.1,4.1,0,0,1-2.41.74,4,4,0,0,1-2.38-.74,3.75,3.75,0,0,1-1.42-1.86L429.7,176.89a5.21,5.21,0,0,1-.27-1.55,3.9,3.9,0,0,1,.31-1.55,4.24,4.24,0,0,1,.85-1.3,3.64,3.64,0,0,1,1.28-.87,4,4,0,0,1,1.59-.31,4.09,4.09,0,0,1,2.35.65,3.37,3.37,0,0,1,1.3,1.6l8.14,24.32,7.88-23.59a4,4,0,0,1,7.8,0l7.87,23.62L477,173.56a2.9,2.9,0,0,1,1.24-1.63,4.2,4.2,0,0,1,2.4-.62,4,4,0,0,1,1.59.31,3.64,3.64,0,0,1,1.28.87,4.49,4.49,0,0,1,.87,1.3,3.75,3.75,0,0,1,.33,1.55,4.28,4.28,0,0,1-.31,1.55Z"/><path class="cls-1" d="M420.23,287.22c-14.14-.73-23.56,13.87-24.75,15.81-2,2.89-4,5.94-6,9.13-2.72-14.4-5.3-24.27-5.57-25.28a5,5,0,1,0-9.75,2.58c.08.31,4.08,15.63,7.41,36.4C358.81,368,341.2,424.67,349,449c2.58,8,7.37,11.14,10.95,12.39a21.35,21.35,0,0,0,7.07,1.31,15.2,15.2,0,0,0,8.15-2.29c10.64-6.57,15-26.38,19.62-63,2-15.89,1.45-33.59-.2-50.09a20.11,20.11,0,0,0,9.91,7.23c6.68,2.16,13.83.35,19.61-5,11.06-10.17,15.2-30.1,15.39-37.63C440,295.64,429.82,287.71,420.23,287.22ZM384.82,396.05c-3.11,24.43-7.08,50.89-14.91,55.72-1.05.65-2.87,1.36-6.57.05-.77-.27-3.12-1.09-4.7-6-5.88-18.2,6.17-63.37,25.35-102.76C386,360.43,386.93,379.46,384.82,396.05Zm44.63-84.43c-.14,5.82-3.85,22.84-12.14,30.46-3.06,2.82-6.5,3.81-9.67,2.79-3.95-1.28-7-5.61-8.26-11.58a5.05,5.05,0,0,0-4.94-4,5.31,5.31,0,0,0-2,.41c-.11-.72-.21-1.44-.32-2.15,3.75-6.67,7.68-13,11.73-18.86a2.2,2.2,0,0,0,.21-.32c.07-.12,7-11.45,15.64-11C429.69,297.81,429.47,311.06,429.45,311.62Z"/><path class="cls-1" d="M586.52,307.06a5,5,0,0,0-5.44,4.61c-1.34,16.15-8.5,27.79-20.18,32.79-9.49,4.06-21,3-28-2.65a40,40,0,0,1-12.7-18.75c1-.89,1.93-1.83,2.83-2.82,11.14-12.27,19.19-39.91,23.19-61.06h39.85a5,5,0,0,0,0-10.09H548a90.25,90.25,0,0,0,1.16-14.21c-.38-9.75-4.41-16.38-10.52-17.29-7.49-1.11-14,6.22-19.42,21.78-1.15,3.31-2.19,6.54-3.18,9.72H490.3a5,5,0,0,0,0,10.09h22.76c-6.44,24-7.95,44.06-4.49,60a26.45,26.45,0,0,1-14.93,3.57,62,62,0,0,0-.2-16.2c-1.33-9.13-4.71-15.56-10.06-19.1a15.82,15.82,0,0,0-12.49-2.25,13.14,13.14,0,0,0-8.49,7.47,15.37,15.37,0,0,0-1.07,3.53c-6.34,3.2-15.1,10.65-16.91,27.71-1.53,14.35,3.22,22.39,7.48,26.61a20.22,20.22,0,0,0,16.55,6c6.06-.69,11.65-4.16,16.18-10a43.65,43.65,0,0,0,6.91-13.77,36.6,36.6,0,0,0,20-3.71,49.55,49.55,0,0,0,15.07,20.68c6,4.84,14,7.35,22.23,7.35a40.93,40.93,0,0,0,16-3.28c8.84-3.78,24-14.18,26.26-41.22A5.06,5.06,0,0,0,586.52,307.06ZM476.63,340.3c-2,2.55-5.18,5.7-9.33,6.17a10.39,10.39,0,0,1-8.3-3.12c-3.79-3.77-5.41-10.29-4.55-18.39,1-9.22,4.53-14.45,7.95-17.4a49.6,49.6,0,0,0,3.62,8.52,31.3,31.3,0,0,0,15.75,14.15A33.09,33.09,0,0,1,476.63,340.3Zm7.17-20.21a20.79,20.79,0,0,1-8.86-8.73,35.83,35.83,0,0,1-3.32-8.3,5,5,0,0,0,2.16-4.88,5,5,0,0,0-1.26-2.69,2.41,2.41,0,0,1,.94-.54,5.6,5.6,0,0,1,4.35.91c2.81,1.86,4.76,6.05,5.65,12.14A52.25,52.25,0,0,1,483.8,320.09Zm44.91-77.41c4-11.61,7.39-14.37,8.36-15,.68.8,1.79,3.26,1.95,7.55a84.44,84.44,0,0,1-1.22,13.82H526.57C527.27,246.92,528,244.77,528.71,242.68Zm-5.17,16.5H536c-.92,4.59-2,9.51-3.37,14.56-4.37,16.64-9.78,29.93-15.09,37.26C515.63,295.07,518.71,276.53,523.54,259.18Z"/><path class="cls-1" d="M369.46,323.43c4.49-18.55-2.81-33.16-20-40.08-3.84-1.54-9.33-2.63-15.69-3.9-11.38-2.26-25.55-5.09-37.17-11.67-5.38-3-8.68-8-9-13.69-.45-7.19,3.76-14.5,11.86-20.56s19.7-7.77,31.37-4.84c9,2.26,16.15,7.08,18.71,12.59,3.84,8.26-2.89,16.86-3,17a5,5,0,0,0,7.84,6.35c.44-.55,10.8-13.52,4.27-27.56-3.87-8.31-13.36-15.09-25.4-18.11-14.58-3.67-29.49-1.23-39.87,6.54-10.93,8.17-16.57,18.57-15.89,29.28.58,9.12,5.74,17.08,14.14,21.84,13,7.38,28.08,10.37,40.17,12.78,5.86,1.17,10.93,2.18,13.9,3.37,15.69,6.31,16.26,18.89,14,28.34-3.73,15.4-16.92,23.32-41.53,24.91-16.83,1.09-41.91-6.6-52.49-19.81l-.12-.15c-.14-.16-13.86-16.53,5.85-39.53a5,5,0,0,0-7.66-6.57c-24.24,28.28-7.56,50.54-5.94,52.56h0c12.26,15.31,37.67,23.7,57,23.7,1.37,0,2.7,0,4-.12C348,354.15,364.61,343.48,369.46,323.43Z"/></svg>